<svg xmlns="http://www.w3.org/2000/svg" viewBox="0 0 512 512"><path d="M207.3 351.2c-4.6-1.7-8.6-5.1-10.5-9.1-2-4.2-2-10.4 0-14.8 2-4.5 7.2-8.6 11.7-9.4 3.7-.7 3-1.1-1.9-1.1-2.7 0-5.5-.2-6.2-.5-1.8-.7-4-3-4.6-4.7-1.1-3.4-.7-5.1 3.6-13.8l4-8.2-12-55.9c-6.6-30.7-12.1-56-12.2-56.2-.1-.2-6.9-.4-15-.4-9.4 0-15.3-.2-16.1-.5-3.1-1.2-5.1-4.3-5.1-7.9s1.5-6 4.9-7.7c1.2-.6 3.9-.7 21-.7 21.6 0 21.3 0 23.8 2.8 1.6 1.7 2.5 4.5 3.6 10.5l.7 3.8 83.4.2 83.4.2 1.8 1.2c1 .7 2.2 2 2.8 3.1l1.1 1.9.1 36.1c.1 23.5 0 36.6-.4 37.8-.7 2.6-2.3 4.6-4.4 5.7-1.8.9-9.3 1.9-73.5 9.4-39.4 4.6-71.6 8.4-71.8 8.6-.1.1.2 2.2.7 4.6 1 4.9 1 5.6-.9 9.9-.7 1.6-1.3 3.2-1.3 3.5 0 .4 18.9.5 64.2.6l64.2.1 1.6 1.1c2.7 1.9 3.7 3.8 3.7 7.2 0 2.7-.1 3.1-1.4 4.7-2.6 3.2-3.2 3.5-9.2 3.7-5.3.2-5.9.5-2.3 1.1 3.7.6 7.8 3.5 10.2 7.2 2.2 3.3 3 6.3 2.8 10.4-.8 13.2-15.7 20.8-26.7 13.5-9.2-6.1-10.4-19.3-2.4-26.8 2.6-2.4 5.6-4 8.3-4.4 1-.1 1.9-.4 2-.6.1-.2-26.1-.4-59.8-.4-33 0-59.9.1-59.7.3.1.2 1.2.4 2.4.7 5.8 1.1 10.7 5.5 12.8 11.5 1.1 2.9.9 8.1-.2 11.2-1.9 4.9-6.4 9.2-11.3 10.7-2.6.6-7.7.6-9.9-.2z"/></svg>